# xmcd
#
# Track frame offsets:
#	150
#	19234
#	37593
#	55606
#	75866
#	91452
#	115871
#	133796
#	145871
#	161088
#	175085
#	192108
#
# Disc length: 2789 seconds
#
# Revision: 1
# Processed by: cddbd v1.5.1PL0 Copyright (c) Steve Scherf et al.
# Submitted via: EasyCDDAExtractor 7.0.5.1
#
DISCID=8c0ae30c
DTITLE=Country Five - Anio³ pasterzom mowil
DYEAR=2002
DGENRE=Gospel
TTITLE0=Gdy sliczna panna
TTITLE1=Lulajze Jezuniu
TTITLE2=Mizerna cicha
TTITLE3=Nie bylo miejsca dla Ciebie
TTITLE4=Pojdzmy wszyscy do stajenki
TTITLE5=Cicha noc
TTITLE6=Wsrod nocnej ciszy
TTITLE7=Medrcy swiata
TTITLE8=Jezu malusienki
TTITLE9=Przybiezeli do Betlejem
TTITLE10=Obudz sie
TTITLE11=Aniol pasterzom mowil
EXTD=
EXTT0=
EXTT1=
EXTT2=
EXTT3=
EXTT4=
EXTT5=
EXTT6=
EXTT7=
EXTT8=
EXTT9=
EXTT10=
EXTT11=
PLAYORDER=
